<svg width="63" height="44" viewBox="0 0 63 44" fill="none" xmlns="http://www.w3.org/2000/svg">
<g clip-path="url(#clip0_273_26)">
<path d="M36.8479 43.5904L43.8459 18.922L50.7757 43.5904H54.2576L45.621 14.835H42.0367L33.4001 43.5904H36.8479Z" fill="#482C98"/>
<path d="M60.4573 5.38292C61.2803 6.83676 61.4604 8.68907 60.9003 10.9238C60.3378 13.1685 59.0454 15.7106 57.06 18.3912C53.0918 23.7491 46.5217 29.4352 38.2661 34.1084C30.0105 38.7815 21.7538 41.4882 15.1177 42.133C11.7976 42.4556 8.95283 42.2554 6.7387 41.5824C4.53444 40.9125 3.03898 39.8047 2.21602 38.3509C1.39307 36.8971 1.21297 35.0448 1.77301 32.8101C2.33555 30.5653 3.62797 28.0232 5.6133 25.3426C9.58157 19.9847 16.1517 14.2986 24.4073 9.62546C32.6629 4.9523 40.9195 2.24563 47.5557 1.60081C50.8757 1.2782 53.7205 1.47843 55.9346 2.15139C58.1389 2.82135 59.6344 3.92909 60.4573 5.38292Z" stroke="#482C98" stroke-width="2.9"/>
</g>
<defs>
<clipPath id="clip0_273_26">
<rect width="63" height="44" fill="white"/>
</clipPath>
</defs>
</svg>
